# xmcd CD database file
#
# Track frame offsets:
#	150
#	27510
#	42856
#	70224
#	87195
#	104542
#
# Disc length: 1624 seconds
#
# Revision: 0
# Processed by: cddbd v1.5PL3 Copyright (c) Steve Scherf et al.
# Submitted via: CDex 1.51
#
DISCID=4a065606
DTITLE=Tlaxcatecatl Band - Tequila Latin Jazz
DYEAR=2001
DGENRE=Jazz
TTITLE0=Para ti latino
TTITLE1=Bluesette
TTITLE2=Joy Spring
TTITLE3=My Friend
TTITLE4=Take Five
TTITLE5=Lamento
EXTD=YEAR: 2001
EXTT0=
EXTT1=
EXTT2=
EXTT3=
EXTT4=
EXTT5=
PLAYORDER=
